<svg width="64" height="64" viewBox="0 0 64 64" fill="none" xmlns="http://www.w3.org/2000/svg">
<g filter="url(#filter0_d_1_262)">
<g clip-path="url(#clip0_1_262)">
<path d="M32 55.3101C47.1878 55.3101 59.5 42.9979 59.5 27.8101C59.5 12.6223 47.1878 0.310059 32 0.310059C16.8122 0.310059 4.5 12.6223 4.5 27.8101C4.5 42.9979 16.8122 55.3101 32 55.3101Z" fill="#AFF8C8"/>
<path d="M32 42.3101C40.0081 42.3101 46.5 35.8182 46.5 27.8101C46.5 19.802 40.0081 13.3101 32 13.3101C23.9919 13.3101 17.5 19.802 17.5 27.8101C17.5 35.8182 23.9919 42.3101 32 42.3101Z" fill="#00D37F"/>
<path d="M23.5 25.7901L31.3378 33.3101L47.5 16.3101" stroke="#00D37F" stroke-width="4" stroke-linecap="round" stroke-linejoin="round"/>
<mask id="mask0_1_262" style="mask-type:alpha" maskUnits="userSpaceOnUse" x="17" y="13" width="30" height="30">
<path d="M32 42.3101C40.0081 42.3101 46.5 35.8182 46.5 27.8101C46.5 19.802 40.0081 13.3101 32 13.3101C23.9919 13.3101 17.5 19.802 17.5 27.8101C17.5 35.8182 23.9919 42.3101 32 42.3101Z" fill="#F9DA70"/>
</mask>
<g mask="url(#mask0_1_262)">
<path d="M23.5 25.7901L31.3378 33.3101L47.5 16.3101" stroke="#014751" stroke-width="4" stroke-linecap="round" stroke-linejoin="round"/>
</g>
</g>
</g>
<defs>
<filter id="filter0_d_1_262" x="0.5" y="0.310059" width="63" height="63" filterUnits="userSpaceOnUse" color-interpolation-filters="sRGB">
<feFlood flood-opacity="0" result="BackgroundImageFix"/>
<feColorMatrix in="SourceAlpha" type="matrix" values="0 0 0 0 0 0 0 0 0 0 0 0 0 0 0 0 0 0 127 0" result="hardAlpha"/>
<feOffset dy="4"/>
<feGaussianBlur stdDeviation="2"/>
<feComposite in2="hardAlpha" operator="out"/>
<feColorMatrix type="matrix" values="0 0 0 0 0 0 0 0 0 0 0 0 0 0 0 0 0 0 0.25 0"/>
<feBlend mode="normal" in2="BackgroundImageFix" result="effect1_dropShadow_1_262"/>
<feBlend mode="normal" in="SourceGraphic" in2="effect1_dropShadow_1_262" result="shape"/>
</filter>
<clipPath id="clip0_1_262">
<rect width="55" height="55" fill="white" transform="translate(4.5 0.310059)"/>
</clipPath>
</defs>
</svg>
