<svg width="54" height="47" viewBox="0 0 54 47" fill="none" xmlns="http://www.w3.org/2000/svg">
<g clip-path="url(#clip0_1_228)">
<path d="M0.5 24.8101C0.5 12.6598 10.3497 2.81006 22.5 2.81006C34.6503 2.81006 44.5 12.6598 44.5 24.8101C44.5 36.9604 34.6503 46.8101 22.5 46.8101H0.5V24.8101Z" fill="#F9DA70"/>
<path d="M53.5 12.8101C53.5 6.18264 48.1274 0.810059 41.5 0.810059C34.8726 0.810059 29.5 6.18264 29.5 12.8101C29.5 19.4375 34.8726 24.8101 41.5 24.8101H53.5V12.8101Z" fill="#D2C4FB"/>
<path fill-rule="evenodd" clip-rule="evenodd" d="M44.5 24.8099C44.5 16.1801 39.5311 8.71078 32.2983 5.10693C30.5516 7.19122 29.5 9.87774 29.5 12.8099C29.5 19.4374 34.8726 24.8099 41.5 24.8099H44.5Z" fill="#014751"/>
</g>
<defs>
<clipPath id="clip0_1_228">
<rect width="53" height="46" fill="white" transform="translate(0.5 0.810059)"/>
</clipPath>
</defs>
</svg>
