<svg width="70" height="58" viewBox="0 0 70 58" fill="none" xmlns="http://www.w3.org/2000/svg">
<g clip-path="url(#clip0_1_176)">
<path d="M19.2771 23.8329C25.7231 23.8329 30.9487 18.6074 30.9487 12.1613C30.9487 5.7153 25.7231 0.489746 19.2771 0.489746C12.8311 0.489746 7.6055 5.7153 7.6055 12.1613C7.6055 18.6074 12.8311 23.8329 19.2771 23.8329Z" fill="#D2C4FB"/>
<path d="M49.7224 23.8329C56.1684 23.8329 61.394 18.6074 61.394 12.1613C61.394 5.7153 56.1684 0.489746 49.7224 0.489746C43.2764 0.489746 38.0508 5.7153 38.0508 12.1613C38.0508 18.6074 43.2764 23.8329 49.7224 23.8329Z" fill="#00D37F"/>
<path d="M0.5 38.9077C0.5 33.3848 4.97715 28.9077 10.5 28.9077H28.0522C33.5751 28.9077 38.0522 33.3848 38.0522 38.9077V54.3106C38.0522 55.4152 37.1568 56.3106 36.0522 56.3106H2.5C1.39543 56.3106 0.5 55.4152 0.5 54.3106V38.9077Z" fill="#00D37F"/>
<path d="M30.9492 38.9077C30.9492 33.3848 35.4264 28.9077 40.9492 28.9077H58.5015C64.0243 28.9077 68.5015 33.3848 68.5015 38.9077V54.3106C68.5015 55.4152 67.606 56.3106 66.5015 56.3106H32.9492C31.8446 56.3106 30.9492 55.4152 30.9492 54.3106V38.9077Z" fill="#D2C4FB"/>
<path fill-rule="evenodd" clip-rule="evenodd" d="M32.9453 56.3113H36.0481C37.1526 56.3113 38.0481 55.4159 38.0481 54.3113V38.9084C38.0481 35.8428 36.6687 33.0994 34.4967 31.2651C32.3247 33.0994 30.9453 35.8428 30.9453 38.9084V54.3113C30.9453 55.4159 31.8407 56.3113 32.9453 56.3113Z" fill="#014751"/>
</g>
<defs>
<clipPath id="clip0_1_176">
<rect width="69" height="57" fill="white" transform="translate(0.5 0.310059)"/>
</clipPath>
</defs>
</svg>
