<svg width="69" height="69" viewBox="0 0 69 69" fill="none" xmlns="http://www.w3.org/2000/svg">
<g clip-path="url(#clip0_1_160)">
<path d="M26.5 52.8101C40.8594 52.8101 52.5 41.1695 52.5 26.8101C52.5 12.4507 40.8594 0.810059 26.5 0.810059C12.1406 0.810059 0.5 12.4507 0.5 26.8101C0.5 41.1695 12.1406 52.8101 26.5 52.8101Z" fill="#00D37F"/>
<path fill-rule="evenodd" clip-rule="evenodd" d="M34.8489 35.1589C36.6473 33.3604 39.5632 33.3604 41.3617 35.1589L67.1511 60.9483C68.9496 62.7468 68.9496 65.6627 67.1511 67.4611C65.3527 69.2596 62.4368 69.2596 60.6383 67.4611L34.8489 41.6717C33.0504 39.8732 33.0504 36.9573 34.8489 35.1589Z" fill="#F9DA70"/>
<path fill-rule="evenodd" clip-rule="evenodd" d="M41.2957 48.1925L34.8642 41.7609C33.0453 39.942 33.0453 36.993 34.8642 35.1742C36.683 33.3553 39.632 33.3553 41.4509 35.1742L47.8825 41.6057C46.1003 44.1764 43.8664 46.4103 41.2957 48.1925Z" fill="#014751"/>
</g>
<defs>
<clipPath id="clip0_1_160">
<rect width="68" height="68" fill="white" transform="translate(0.5 0.810059)"/>
</clipPath>
</defs>
</svg>
