<svg width="46" height="59" viewBox="0 0 46 59" fill="none" xmlns="http://www.w3.org/2000/svg">
<g clip-path="url(#clip0_1_244)">
<path fill-rule="evenodd" clip-rule="evenodd" d="M0.5 16.4074C0.5 15.1129 1.33027 13.9645 2.55946 13.5586L22.0595 7.12049C22.6703 6.91882 23.3297 6.91882 23.9405 7.12049L43.4405 13.5586C44.6697 13.9644 45.5 15.1129 45.5 16.4074V32.81C45.5 47.8731 28.508 56.391 24.0569 58.364C23.3769 58.6653 22.6231 58.6653 21.9431 58.364C17.492 56.391 0.5 47.8731 0.5 32.81V16.4074Z" fill="#014751"/>
<path fill-rule="evenodd" clip-rule="evenodd" d="M0.5 10.4073C0.5 9.11289 1.33027 7.96441 2.55946 7.55858L22.0595 1.12049C22.6703 0.918822 23.3297 0.918822 23.9405 1.12049L43.4405 7.55858C44.6697 7.96441 45.5 9.11288 45.5 10.4073V26.81C45.5 41.8731 28.508 50.391 24.0569 52.364C23.3769 52.6653 22.6231 52.6653 21.9431 52.364C17.492 50.391 0.5 41.8731 0.5 26.81V10.4073Z" fill="#AFF8C8"/>
<path fill-rule="evenodd" clip-rule="evenodd" d="M0.5 17.6102V27.5971C0.5 42.353 17.5389 50.6885 21.9615 52.6035C22.6301 52.893 23.3699 52.893 24.0385 52.6035C28.4611 50.6885 45.5 42.353 45.5 27.5971V17.6102C45.5 16.3148 44.6685 15.1657 43.4381 14.7606L23.9381 8.34135C23.3288 8.14078 22.6712 8.14078 22.0619 8.34135L2.56194 14.7606C1.33149 15.1657 0.5 16.3148 0.5 17.6102Z" fill="#00D37F"/>
<path d="M16.5 28.8101L21.5 33.8101" stroke="#AFF8C8" stroke-width="3" stroke-linecap="round" stroke-linejoin="round"/>
<path d="M31.5 23.8101L21.5 33.8101" stroke="#AFF8C8" stroke-width="3" stroke-linecap="round" stroke-linejoin="round"/>
</g>
<defs>
<clipPath id="clip0_1_244">
<rect width="45" height="58" fill="white" transform="translate(0.5 0.810059)"/>
</clipPath>
</defs>
</svg>
