<svg width="58" height="42" viewBox="0 0 58 42" fill="none" xmlns="http://www.w3.org/2000/svg">
<g clip-path="url(#clip0_1_212)">
<path d="M15.5 24.3101H2.5C1.39543 24.3101 0.5 25.2055 0.5 26.3101V39.3101C0.5 40.4146 1.39543 41.3101 2.5 41.3101H15.5C16.6046 41.3101 17.5 40.4146 17.5 39.3101V26.3101C17.5 25.2055 16.6046 24.3101 15.5 24.3101Z" fill="#F9DA70"/>
<path d="M35.5 12.3101H22.5C21.3954 12.3101 20.5 13.2055 20.5 14.3101V39.3101C20.5 40.4146 21.3954 41.3101 22.5 41.3101H35.5C36.6046 41.3101 37.5 40.4146 37.5 39.3101V14.3101C37.5 13.2055 36.6046 12.3101 35.5 12.3101Z" fill="#00D37F"/>
<path d="M55.5 0.310059H42.5C41.3954 0.310059 40.5 1.20549 40.5 2.31006V39.3101C40.5 40.4146 41.3954 41.3101 42.5 41.3101H55.5C56.6046 41.3101 57.5 40.4146 57.5 39.3101V2.31006C57.5 1.20549 56.6046 0.310059 55.5 0.310059Z" fill="#014751"/>
</g>
<defs>
<clipPath id="clip0_1_212">
<rect width="57" height="41" fill="white" transform="translate(0.5 0.310059)"/>
</clipPath>
</defs>
</svg>
