<svg width="82" height="47" viewBox="0 0 82 47" fill="none" xmlns="http://www.w3.org/2000/svg">
<g clip-path="url(#clip0_1_194)">
<path d="M10.8725 46.8109C16.6011 46.8109 21.245 42.167 21.245 36.4384C21.245 30.7098 16.6011 26.0659 10.8725 26.0659C5.14393 26.0659 0.5 30.7098 0.5 36.4384C0.5 42.167 5.14393 46.8109 10.8725 46.8109Z" fill="#014751"/>
<path d="M28.9128 46.8096C38.1284 46.8096 45.5991 39.3389 45.5991 30.1233C45.5991 20.9077 38.1284 13.437 28.9128 13.437C19.6972 13.437 12.2265 20.9077 12.2265 30.1233C12.2265 39.3389 19.6972 46.8096 28.9128 46.8096Z" fill="#F9DA70"/>
<path fill-rule="evenodd" clip-rule="evenodd" d="M12.6808 26.2222C17.5459 27.0789 21.2423 31.3264 21.2423 36.4372C21.2423 39.0632 20.2664 41.4613 18.6576 43.2886C14.7412 40.2351 12.2227 35.4725 12.2227 30.1217C12.2227 28.7789 12.3813 27.4732 12.6808 26.2222Z" fill="#00D37F"/>
<path d="M57.7734 46.8101C70.476 46.8101 80.7734 36.5126 80.7734 23.8101C80.7734 11.1075 70.476 0.810059 57.7734 0.810059C45.0709 0.810059 34.7734 11.1075 34.7734 23.8101C34.7734 36.5126 45.0709 46.8101 57.7734 46.8101Z" fill="#00D37F"/>
<path fill-rule="evenodd" clip-rule="evenodd" d="M41.9697 40.5174C37.5405 36.3252 34.7773 30.3905 34.7773 23.8105C34.7773 20.7751 35.3653 17.8771 36.4336 15.2241C41.8721 17.9739 45.6009 23.6136 45.6009 30.1243C45.6009 34.0539 44.2425 37.6663 41.9697 40.5174Z" fill="#014751"/>
</g>
<defs>
<clipPath id="clip0_1_194">
<rect width="81" height="46" fill="white" transform="translate(0.5 0.810059)"/>
</clipPath>
</defs>
</svg>
