<svg width="158" height="35" viewBox="0 0 158 35" fill="none" xmlns="http://www.w3.org/2000/svg">
<g clip-path="url(#clip0_1_100)">
<mask id="mask0_1_100" style="mask-type:luminance" maskUnits="userSpaceOnUse" x="0" y="0" width="157" height="35">
<path d="M156.361 0.310059H0.361328V34.3101H156.361V0.310059Z" fill="white"/>
</mask>
<g mask="url(#mask0_1_100)">
<path d="M156.359 0.317871V34.3011H0.359375V0.317871H156.359Z" fill="#AAB9CA"/>
<path d="M50.6572 14.5162C49.9755 15.4274 48.8349 17.0115 48.1407 17.9368C47.7884 18.4073 47.1519 19.2615 49.2618 19.2615H60.3706C60.3706 19.2615 62.1609 16.8573 63.6619 14.8465C65.7035 12.1111 63.8386 6.41943 56.5395 6.41943H27.7944L22.8103 13.1038H49.9746C51.346 13.1038 51.3274 13.619 50.6572 14.5162ZM42.4963 20.9105C40.3864 20.9105 41.0228 20.0545 41.3752 19.584C42.0693 18.6587 43.2286 17.0913 43.9103 16.18C44.5813 15.2828 44.5991 14.7676 43.2259 14.7676H30.8026L20.7927 28.1959H45.2036C53.2659 28.1959 57.7547 22.7829 59.1385 20.9114L42.4963 20.9105ZM58.3761 28.1959H72.6963L78.125 20.9096L63.8066 20.9114C63.8022 20.9105 58.3761 28.1959 58.3761 28.1959ZM95.3238 6.41943L89.8312 13.7837H83.4402L88.9302 6.41943H74.6144L65.0369 19.2615H100.063L109.638 6.41943H95.3238ZM79.0872 28.1959H93.4021L98.8336 20.9114H84.5187C84.5134 20.9105 79.0872 28.1959 79.0872 28.1959ZM0.359375 23.7843V25.3316H20.3027L21.4549 23.7843H0.359375ZM23.5985 20.9105H0.359375V22.4561H22.4437L23.5985 20.9105ZM0.359375 28.1959H18.1662L19.313 26.6573H0.359375V28.1959ZM135.344 25.3308H156.359V23.7835H136.498L135.344 25.3308ZM133.209 28.1959H156.359V26.6573H134.355L133.209 28.1959ZM138.638 20.9105L137.486 22.4578H156.359V20.9105H138.638ZM119.887 19.2615L129.464 6.41943H114.302C114.297 6.41943 104.719 19.2615 104.719 19.2615H119.887ZM103.491 20.9105C103.491 20.9105 102.444 22.322 101.936 23.0019C100.138 25.3991 101.728 28.1959 107.595 28.1959H130.586L136.017 20.9114L103.491 20.9105Z" fill="#F8FBFF"/>
</g>
</g>
<defs>
<clipPath id="clip0_1_100">
<rect width="157" height="34" fill="white" transform="translate(0.25 0.310059)"/>
</clipPath>
</defs>
</svg>
