<svg width="183" height="44" viewBox="0 0 183 44" fill="none" xmlns="http://www.w3.org/2000/svg">
<g clip-path="url(#clip0_1_83)">
<mask id="mask0_1_83" style="mask-type:luminance" maskUnits="userSpaceOnUse" x="0" y="1" width="183" height="43">
<path d="M182.25 1.53271H0.25V43.5327H182.25V1.53271Z" fill="white"/>
</mask>
<g mask="url(#mask0_1_83)">
<path d="M0.25 43.5327H42.0285V1.53271H0.25V43.5327ZM27.0335 4.7422C34.4308 7.17698 39.751 14.2047 39.7693 22.5235C39.7875 30.7132 34.5583 37.7225 27.0335 40.3233V4.7422ZM21.1302 3.78304C22.4602 3.78304 23.8814 3.94905 25.0657 4.20729C25.0657 13.7251 15.901 21.5459 6.46303 21.5459H2.50928C3.16521 11.7884 11.2002 3.78304 21.1302 3.78304ZM6.46303 23.5196C15.9192 23.5196 25.0657 31.3404 25.0657 40.8582C23.8814 41.098 22.3874 41.2824 21.1302 41.2824C11.182 41.264 2.8919 33.2403 2.50928 23.5196H6.46303Z" fill="#AAB9CA"/>
<path d="M56.0217 26.2118V23.5741H64.7126V20.1986H56.0217V15.2921H65.2774V11.9351H52.4688V26.1011C52.4688 29.6795 53.981 32.1327 57.5339 32.6308C57.6068 32.6492 57.6797 32.6492 57.7343 32.6492H57.8072C58.1716 32.6861 58.536 32.723 58.9369 32.723H65.5143V29.3659H58.9551C57.8254 29.329 56.0217 28.7757 56.0217 26.2118Z" fill="#AAB9CA"/>
<path d="M68.0469 21.7284V32.7033H71.6188V11.9155H68.0469V21.7284Z" fill="#AAB9CA"/>
<path d="M81.8213 17.1929C77.3209 17.1929 73.9502 20.3102 73.9502 25.1613V25.2904C73.9502 30.0309 77.2116 33.0928 81.9124 33.0928C84.1716 33.0928 86.2852 32.4656 88.2347 30.3998L86.0847 28.297C84.9551 29.4406 83.8437 30.0309 82.0217 30.0309C79.3798 30.0309 77.6124 28.4814 77.5031 26.0836H89.1822C89.2368 25.4933 89.2368 24.8293 89.2368 24.8293C89.2368 20.5684 86.2852 17.1929 81.8213 17.1929ZM77.576 23.5381C77.74 21.712 79.5802 20.2364 81.803 20.2364C83.8983 20.2364 85.5928 21.7305 85.5928 23.5381H77.576Z" fill="#AAB9CA"/>
<path d="M99.258 20.403C100.861 20.403 102.046 20.9933 103.066 22.0447L105.271 19.739C103.54 17.8945 101.481 17.1382 99.258 17.1382C94.7212 17.1382 91.0771 20.5137 91.0771 25.1251C91.0771 29.7364 94.7029 33.1303 99.2397 33.1303C101.463 33.1303 103.521 32.3741 105.252 30.5111L103.048 28.2054C102.027 29.2568 100.843 29.8655 99.2397 29.8655C96.616 29.8655 94.6118 27.855 94.6118 25.1251C94.6301 22.4136 96.6161 20.403 99.258 20.403Z" fill="#AAB9CA"/>
<path d="M111.046 26.2135V20.9197H114.289V17.6549H111.064V11.8999H107.493V26.4349C107.602 29.8104 109.115 32.116 112.558 32.5956C112.631 32.614 112.704 32.6325 112.777 32.6325H112.832C113.196 32.6694 113.579 32.7063 113.961 32.7063H114.344V29.3492H113.98C112.85 29.3308 111.046 28.7774 111.046 26.2135Z" fill="#AAB9CA"/>
<path d="M120.812 19.9052V17.6734H117.277V32.7063H120.812V24.7933C120.812 22.3216 122.379 20.7537 124.839 20.7537C125.404 20.7537 125.914 20.8091 126.315 20.9013V17.4336C126.169 17.3967 125.64 17.3413 125.258 17.3413C123.126 17.3598 121.523 18.3558 120.812 19.9052Z" fill="#AAB9CA"/>
<path d="M135.023 17.2124C130.486 17.2124 126.86 20.6802 126.86 25.1808C126.86 29.6815 130.468 33.1492 135.023 33.1492C139.523 33.1492 143.186 29.6815 143.186 25.1808C143.186 20.6802 139.542 17.2124 135.023 17.2124ZM135.023 29.9028C132.381 29.9028 130.395 27.8369 130.395 25.1808C130.395 22.5247 132.381 20.4588 135.023 20.4588C137.647 20.4588 139.651 22.5247 139.651 25.1808C139.651 27.8369 137.647 29.9028 135.023 29.9028Z" fill="#AAB9CA"/>
<path d="M145.373 21.3624V32.6878H148.945V11.8999H145.373V21.3624Z" fill="#AAB9CA"/>
<path d="M161.789 26.3968C161.789 28.7763 160.404 29.7908 158.527 29.7908C156.669 29.7908 155.266 28.7763 155.266 26.4337V17.6538H151.677V26.7288C151.677 31.0266 154.792 33.0925 158.491 33.0925C162.226 33.0925 165.378 31.0082 165.378 26.6551V22.0253V17.6722H161.789V26.3968Z" fill="#AAB9CA"/>
<path d="M178.843 27.892L176.602 24.7378L179.39 20.9381L181.758 17.6733H177.877L174.634 22.1739L171.373 17.6733H167.51L169.715 20.7168L172.666 24.7747L169.569 29.1094L167 32.7247H170.826L174.616 27.4124L178.424 32.7247H182.25L178.843 27.892Z" fill="#AAB9CA"/>
</g>
</g>
<defs>
<clipPath id="clip0_1_83">
<rect width="182" height="43" fill="white" transform="translate(0.25 0.810059)"/>
</clipPath>
</defs>
</svg>
