<svg width="137" height="81" viewBox="0 0 137 81" fill="none" xmlns="http://www.w3.org/2000/svg">
<g clip-path="url(#clip0_1_54)">
<path d="M69.7822 78.087C89.717 78.087 106.074 62.4547 107.337 42.7587C107.088 42.5449 106.876 42.36 106.876 42.36C106.16 41.7538 105.577 41.0055 105.117 40.1691C105.098 40.2043 105.074 40.2357 105.052 40.2709C105.052 40.2835 105.052 40.2986 105.052 40.3125C105.052 59.8311 89.2308 75.7124 69.7822 75.7124C52.0578 75.7124 37.3457 62.5214 34.8772 45.4062C34.6279 45.4289 34.366 45.4402 34.0891 45.4402C33.5202 45.4402 32.9701 45.3358 32.4551 45.1497C34.8284 63.7024 50.6632 78.087 69.7822 78.087ZM69.7822 2.53662C54.6704 2.53662 41.6111 11.5244 35.6291 24.4525H38.258C44.0608 12.8739 56.0124 4.90995 69.7822 4.90995C83.74 4.90995 95.8244 13.0865 101.541 24.9166C102.449 25.3644 103.244 26.0008 103.887 26.8083C104.583 27.6472 104.816 27.9301 104.908 28.0509C104.898 28.0308 105.526 28.8709 105.821 29.4231C101.152 13.8864 86.7648 2.53662 69.7822 2.53662Z" fill="#AAB9CA"/>
<path d="M108.175 43.4803C106.561 63.3247 89.961 78.9759 69.7819 78.9759C50.0125 78.9759 33.6777 63.9498 31.5074 44.6815C31.218 44.4928 30.9486 44.2765 30.708 44.0275C30.6591 44.0664 30.6077 44.1004 30.5576 44.1394C32.4848 64.1599 49.3384 79.8651 69.7819 79.8651C90.2342 79.8651 107.094 64.1486 109.007 44.1168C108.717 43.9268 108.439 43.713 108.175 43.4803ZM34.6501 24.451C40.6936 11.0185 54.1689 1.64333 69.7819 1.64333C86.9462 1.64333 101.52 12.9704 106.485 28.5637C106.697 28.2719 106.916 27.9889 107.144 27.721C101.894 12.0661 87.1291 0.755371 69.7819 0.755371C53.6701 0.755371 39.7851 10.5141 33.684 24.451H34.6501Z" fill="#AAB9CA"/>
<path fill-rule="evenodd" clip-rule="evenodd" d="M22.8475 17.5679L16.4131 42.2898H11.2956L14.1676 31.3677H9.51003L6.67313 42.2898H1.55566L6.61173 22.878C5.72206 23.3057 4.68955 23.5396 3.7485 23.5497C3.46782 23.5509 3.18212 23.5396 2.91021 23.5082L3.77732 20.189C6.17566 20.189 7.47383 19.1816 8.57025 17.5679H13.105L10.5714 27.2864H15.229L17.7301 17.5679H22.8475ZM42.4954 42.2898L44.4977 34.6252C45.0315 32.5525 46.2946 30.3288 48.2456 30.3288C48.8082 30.3288 49.332 30.5024 49.6979 30.7237L50.9334 25.9859C50.6414 25.8601 50.2655 25.7658 49.8295 25.7658C48.292 25.7658 46.7933 27.1442 46.0703 28.3152H46.024L46.5928 26.0349H41.6997L37.4756 42.2898H42.4954ZM98.1346 25.7331C93.1124 25.7331 89.3745 30.52 89.3745 36.054C89.3745 39.8385 91.9671 42.5048 95.1448 42.5048C100.296 42.5048 104.124 37.7607 104.124 32.521C104.124 28.3026 101.634 25.7331 98.1346 25.7331ZM95.73 38.709C94.8428 38.709 94.1449 37.6701 94.1449 35.8452C94.1449 32.5889 95.6924 29.3415 97.7449 29.3415C98.8 29.3415 99.3651 30.6193 99.3651 32.2544C99.3651 35.1207 97.6622 38.709 95.73 38.709ZM63.9088 17.5679L61.3438 27.4058H61.3087C60.8012 26.4902 59.6045 25.7318 58.0871 25.7318C53.6826 25.7318 49.9247 30.9036 49.9247 36.8099C49.9247 40.1026 52.2328 42.5048 54.685 42.5048C56.6561 42.5048 57.9906 41.3729 58.755 40.2686H58.7838L58.2738 42.2898H62.4891L68.921 17.5679H63.9088ZM56.4331 38.5782C55.4532 38.5782 54.9156 37.6211 54.9156 35.9307C54.9156 32.8958 56.5283 29.6597 58.5808 29.6597C59.4905 29.6597 60.1283 30.6571 60.1283 32.2657C60.1283 35.034 58.4755 38.5782 56.4331 38.5782ZM36.1512 38.4235C35.9482 38.4763 35.7138 38.509 35.4194 38.509C34.8718 38.509 34.6124 38.2487 34.6124 37.7921C34.6099 37.6374 34.6362 37.4576 34.6838 37.2563L37.606 26.0349H32.6965L32.268 27.7278H32.2354C31.788 26.7481 30.5951 25.7331 28.9712 25.7331C24.568 25.7331 20.8113 30.9036 20.8113 36.8099C20.8113 40.1026 23.1144 42.5048 25.5679 42.5048C27.7344 42.5048 29.0251 41.2936 29.7919 40.09H29.8233C30.2092 41.7829 31.6139 42.5564 32.8995 42.5564C34.0561 42.5564 34.7315 42.325 35.2176 42.0118L36.1512 38.4235ZM27.3171 38.5782C26.3373 38.5782 25.7997 37.6211 25.7997 35.9307C25.7997 32.8958 27.4124 29.6597 29.4674 29.6597C30.3733 29.6597 31.0137 30.6571 31.0137 32.267C31.0137 35.0339 29.3596 38.5782 27.3171 38.5782ZM88.5287 44.3298C87.5676 44.3298 86.8434 43.5865 86.8434 42.4885C86.8434 41.1188 87.0213 39.568 87.0213 37.9116C87.0213 34.9673 85.47 32.7336 84.3047 32.0053L84.3084 31.9261C87.6441 31.2029 91.1113 27.7417 91.1113 24.1383C91.1113 20.3412 88.7305 17.5679 83.494 17.5679H78.6584C77.5608 19.1816 76.2651 20.189 73.8668 20.189L72.9984 23.5082C73.2716 23.5396 73.5548 23.5509 73.8367 23.5497C74.7765 23.5396 75.809 23.3057 76.7012 22.878L71.6426 42.2898H76.7613L79.2323 32.8216C80.8563 33.258 82.3574 35.2817 82.3574 37.6085C82.3574 40.0447 81.7384 41.2685 81.7384 43.8971C81.7384 46.7773 83.9275 48.5306 87.0313 48.5306C88.7756 48.5306 89.986 47.9118 90.8494 47.1786L90.1063 43.9386C89.7442 44.1801 89.243 44.3298 88.5287 44.3298ZM81.2209 29.1365H80.1922L82.2572 21.1826H82.9389C85.1054 21.1826 85.9111 22.5812 85.9111 24.3005C85.9111 26.8147 84.3586 29.1365 81.2209 29.1365ZM110.388 35.6427C110.388 31.8833 112.486 29.3075 114.733 29.3075C115.879 29.3075 116.834 29.9716 117.405 30.5464L118.338 26.9241C117.572 26.3821 115.971 25.7331 114.364 25.7331C109.546 25.7331 105.619 30.8319 105.619 35.8427C105.619 39.7768 108.263 42.5048 111.643 42.5048C112.971 42.5048 113.907 42.242 114.456 42.0068L115.439 38.1833C114.795 38.6109 114.109 38.7807 112.963 38.7807C111.409 38.7807 110.388 37.7557 110.388 35.6427ZM130.913 43.9688C129.911 43.9688 129.534 43.4368 129.534 42.4545C129.534 41.9087 129.562 41.471 129.562 40.8321C129.562 38.9706 128.694 37.0702 127.526 36.2363V36.2036C130.397 35.6452 133.996 33.3159 133.996 29.6559C133.996 27.5392 132.437 25.7658 129.703 25.7658C128.075 25.7658 126.584 26.5053 125.581 27.6209H125.549L128.145 17.5679H123.144L116.709 42.2898H121.725L123.034 37.2589C124.231 37.4287 125.371 38.626 125.371 40.3592C125.371 41.754 125.174 42.6029 125.174 43.8833C125.174 46.317 126.925 47.8829 129.584 47.8829C130.848 47.8829 132.196 47.4502 132.918 46.8125L132.221 43.5991C131.951 43.789 131.383 43.9688 130.913 43.9688ZM123.816 34.268C124.317 31.7463 126.454 29.2622 128.237 29.2622C128.992 29.2622 129.425 29.6886 129.425 30.4181C129.425 32.2745 126.935 34.268 123.816 34.268Z" fill="#AAB9CA"/>
<path fill-rule="evenodd" clip-rule="evenodd" d="M24.1961 19.1929L17.763 43.9173H12.6468L12.8585 43.101H17.0876L23.3102 19.1929H24.1961ZM12.5428 26.5255L14.4537 19.1929H13.5665L11.6556 26.5255H12.5428ZM5.26755 25.025L5.51064 24.0993C5.11969 24.1735 4.72749 24.2175 4.34907 24.2251L4.14858 24.9986C4.42049 25.03 4.70368 25.0413 4.98812 25.0401C5.08085 25.0376 5.17608 25.0325 5.26755 25.025ZM75.3582 25.025L75.5988 24.0993C75.2079 24.1735 74.8144 24.2175 74.4385 24.2251L74.2355 24.9986C74.5087 25.03 74.7944 25.0413 75.0738 25.0401C75.1665 25.0376 75.263 25.0325 75.3582 25.025ZM12.9563 32.9902L13.1705 32.1789H10.1858L7.34887 43.101H3.11606L2.9043 43.9173H8.02176L10.8599 32.9902H12.9563ZM98.4044 30.7967C98.2502 30.3867 98.0272 30.1389 97.7741 30.1389C96.3143 30.1389 94.9334 32.9298 94.9334 35.8792C94.9334 36.6967 95.0938 37.3079 95.3131 37.6551C95.3056 37.518 95.2993 37.3796 95.2993 37.2337C95.2993 34.2454 96.6025 31.2646 98.4044 30.7967ZM104.761 30.9174C104.841 31.4268 104.881 31.9626 104.881 32.521C104.881 38.4462 100.516 43.2645 95.1452 43.2645C94.5061 43.2645 93.8971 43.174 93.322 43.0017C94.1853 43.5538 95.1953 43.8582 96.2704 43.8582C101.422 43.8582 105.249 39.1128 105.249 33.8743C105.249 32.7701 105.076 31.779 104.761 30.9174ZM29.6143 41.5389C28.5392 42.6671 27.1634 43.2645 25.5682 43.2645C25.1572 43.2645 24.7525 43.2092 24.3653 43.1111C25.072 43.5915 25.8765 43.8582 26.6922 43.8582C28.3337 43.8582 29.4715 43.1652 30.2584 42.3036C30.0191 42.0848 29.801 41.832 29.6143 41.5389ZM26.9529 37.3193C26.9529 34.5447 28.3037 31.5966 30.108 31.1174C29.9664 30.7086 29.7472 30.4558 29.4966 30.4558C28.0267 30.4558 26.587 33.1826 26.587 35.9647C26.587 36.308 26.6221 37.2438 26.9591 37.6551C26.9566 37.5456 26.9529 37.435 26.9529 37.3193ZM35.4197 37.8324C35.7142 37.8324 35.9322 37.7972 36.1327 37.7192L36.3595 37.6299L38.9533 27.6599H38.0674L35.4197 37.8324ZM52.1743 28.031L52.3497 27.3618C52.1204 27.265 51.8359 27.1883 51.5152 27.1568L50.7044 30.2634C51.1255 29.4446 51.6192 28.6938 52.1743 28.031ZM49.4451 31.6859L49.5241 31.3866C49.5241 31.3866 49.0955 31.1275 48.5354 31.0885C48.3688 31.0746 48.2059 31.096 48.0417 31.135C46.5506 31.6557 45.6321 33.653 45.1735 35.439L43.1686 43.101H39.0373L38.8255 43.9173H43.8465L45.8489 36.254C46.3814 34.18 47.4202 31.6834 49.3699 31.6834C49.3963 31.6834 49.4226 31.6834 49.4451 31.6859ZM36.5136 43.2394L37.4371 39.6951C37.2166 39.7655 36.9622 39.807 36.6339 39.8108L35.941 42.4784C35.7104 42.6633 35.4385 42.8319 35.0827 42.9602C34.4674 43.2092 33.7431 43.3312 32.8372 43.3312C32.6492 43.3312 32.455 43.3161 32.2633 43.2897C32.8134 43.672 33.4637 43.8582 34.089 43.8582C35.3333 43.8582 36.0199 43.594 36.5136 43.2394ZM69.3849 19.1929L63.1623 43.101H59.8279L59.6224 43.9173H63.8389L70.2721 19.1929H69.3849ZM56.0675 37.3193C56.0675 34.5447 57.4195 31.5966 59.2239 31.1174C59.0823 30.7086 58.8643 30.4558 58.6125 30.4558C57.1426 30.4558 55.7029 33.1826 55.7029 35.9647C55.7029 36.308 55.7367 37.2438 56.0763 37.6551C56.0713 37.5456 56.0675 37.435 56.0675 37.3193ZM57.4083 43.101L57.5674 42.4797C56.7191 42.9966 55.753 43.2645 54.6854 43.2645C54.2719 43.2645 53.8684 43.2092 53.4825 43.1111C54.1867 43.5915 54.9911 43.8582 55.8081 43.8582C56.8895 43.8582 57.7529 43.5576 58.442 43.101H57.4083ZM91.792 44.5009C91.599 44.6317 91.3647 44.7323 91.0803 44.8002L91.693 47.459L91.3384 47.7584C90.1417 48.7746 88.6932 49.2915 87.0317 49.2915C86.3325 49.2915 85.6771 49.2073 85.0744 49.0538C85.9152 49.523 86.959 49.7707 88.1293 49.7707C89.8773 49.7707 91.084 49.1544 91.9511 48.4199L92.5626 47.8514L91.792 44.5009ZM87.8111 37.8664C87.8111 38.7568 87.7622 39.6008 87.7171 40.4145C87.6732 41.1364 87.6369 41.8131 87.6369 42.4445C87.6369 43.0369 87.9339 43.4368 88.4113 43.506C88.4138 42.159 88.5842 40.6384 88.5842 39.0159C88.5842 37.04 87.885 35.3861 87.0768 34.2894C87.5229 35.3333 87.8111 36.5546 87.8111 37.8664ZM114.733 30.0974C113.022 30.0974 111.175 32.2167 111.175 35.6427C111.175 36.3256 111.292 36.8614 111.521 37.2463C111.519 37.1633 111.514 37.0853 111.514 36.9985C111.514 33.2354 113.608 30.6634 115.857 30.6634C116.041 30.6634 116.218 30.681 116.392 30.7112C115.985 30.4118 115.401 30.0974 114.733 30.0974ZM127.882 25.2652L129.451 19.1929H128.609L126.943 25.6513C127.261 25.4954 127.589 25.3646 127.882 25.2652ZM134.775 29.4861C134.775 29.5427 134.783 29.5981 134.783 29.6559C134.783 33.0681 132.059 35.5899 129.011 36.6376C129.159 36.8401 129.295 37.0639 129.425 37.2941C132.11 36.4866 135.054 34.2642 135.054 30.9552C135.054 30.4395 134.957 29.9427 134.775 29.4861ZM133.208 44.5688L133.753 47.0867L133.42 47.3811C132.556 48.1483 131.051 48.6451 129.584 48.6451C129.05 48.6451 128.544 48.5822 128.075 48.4728C128.778 48.8966 129.665 49.1255 130.687 49.1255C131.947 49.1255 133.294 48.6941 134.016 48.0552L134.631 47.4854L133.935 44.2732C133.77 44.3864 133.5 44.4971 133.208 44.5688ZM79.8141 33.9397L77.4345 43.101H73.203L72.9925 43.9173H78.1087L80.5296 34.6C80.3078 34.3384 80.0647 34.1146 79.8141 33.9397ZM83.1622 21.9926H82.9329L81.2764 28.3705C81.6022 28.368 81.9042 28.3366 82.1861 28.2812L83.6071 22.8076H84.2887C84.5506 22.8076 84.7862 22.8303 85.0092 22.8692C84.5105 21.9951 83.5519 21.9926 83.1622 21.9926ZM91.8697 23.4063C91.8885 23.6453 91.8985 23.8893 91.8985 24.1383C91.8985 27.7228 88.8987 31.0118 85.7949 32.2808C85.9465 32.4556 86.0969 32.6443 86.2385 32.8468C89.2571 31.7475 92.1078 28.6032 92.1078 25.3382C92.1078 24.6565 92.0276 24.0113 91.8697 23.4063ZM123.645 38.3091L122.399 43.101H118.274L118.058 43.9173H123.074L124.324 39.104C124.148 38.7644 123.91 38.4952 123.645 38.3091ZM116.745 39.4473C116.461 39.6209 116.17 39.7492 115.828 39.8334L115.124 42.5803L114.767 42.7325C114.169 42.9891 113.141 43.2947 111.643 43.2947C111.315 43.2947 110.994 43.2695 110.679 43.2255C111.4 43.5387 112.198 43.711 113.04 43.711C114.304 43.711 115.208 43.4708 115.765 43.2482L116.745 39.4473ZM119.664 28.085C119.471 27.953 119.231 27.8171 118.954 27.6863L118.063 31.1488C118.325 31.3199 118.547 31.5086 118.739 31.6897L119.664 28.085ZM125.854 33.2065C126.607 31.9689 127.664 30.9841 128.687 30.6772C128.707 30.5766 128.717 30.4747 128.717 30.3766C128.717 30.1364 128.666 29.9829 128.445 29.9263C127.082 30.1414 125.594 31.662 124.804 33.4694C125.17 33.4102 125.522 33.3222 125.854 33.2065ZM130.293 42.4545C130.293 43.174 130.482 43.2067 130.914 43.2067C130.945 43.2067 130.976 43.2054 131.01 43.2016C131.016 42.935 131.025 42.6545 131.025 42.3212C131.025 41.0874 130.643 39.8448 130.046 38.8977C130.221 39.524 130.32 40.1793 130.32 40.8321L130.307 41.7288L130.293 42.4545Z" fill="#AAB9CA"/>
<path d="M58.3039 63.8682C55.2352 63.8682 53.6914 62.0898 53.6914 59.3127C53.6914 56.6967 55.254 54.3296 58.7625 54.3296C59.3151 54.3296 60.0594 54.4001 60.6446 54.5611L60.4491 56.5709C59.8639 56.3772 59.2424 56.2703 58.6397 56.2703C57.0609 56.2703 56.1574 57.4098 56.1574 59.1002C56.1574 60.8987 57.1511 61.8219 58.7475 61.8219C59.384 61.8219 60.0218 61.6986 60.5205 61.4484L60.7148 63.4771C59.9529 63.7286 59.1547 63.8682 58.3039 63.8682ZM68.505 63.7286L67.9386 62.1087H64.3737L63.7885 63.7286H61.4829L64.9075 54.4717H67.6203L71.0249 63.7286H68.505ZM66.5903 58.2638C66.4299 57.8362 66.2558 57.3016 66.148 56.8916H66.1292C66.0214 57.3016 65.8823 57.7821 65.7207 58.2085L64.9075 60.4522H67.3873L66.5903 58.2638ZM74.5372 56.2703V58.2814H77.6548V60.041H74.5372V63.7286H72.2478V54.4717H77.8352V56.2703H74.5372ZM79.5707 63.7286V54.4717H85.2457V56.2703H81.8562V58.1204H85.0866V59.8649H81.8562V61.8936H85.2457V63.7286H79.5707Z" fill="#AAB9CA"/>
<path d="M113.106 48.4773C113.042 48.3968 112.984 48.3201 112.928 48.2672C113.293 48.2471 113.564 48.0459 113.564 47.6975C113.564 47.3642 113.314 47.1831 112.86 47.1831C112.629 47.1831 112.441 47.1894 112.32 47.1931V49.1728H112.612V48.2911H112.621L113.315 49.1728H113.68L113.106 48.4773ZM112.612 48.0823V47.417C112.666 47.4082 112.728 47.4069 112.823 47.4069C113.091 47.4069 113.261 47.5126 113.261 47.7302C113.261 47.9503 113.095 48.0911 112.834 48.0911C112.753 48.0911 112.67 48.0874 112.612 48.0823ZM112.921 46.353C111.913 46.353 111.096 47.1755 111.096 48.1817C111.096 49.208 111.879 50.0142 112.921 50.0142C113.909 50.0142 114.747 49.1753 114.747 48.1817C114.747 47.1466 113.952 46.353 112.921 46.353ZM112.921 49.7828C112.052 49.7828 111.355 49.0307 111.355 48.1603C111.355 47.2925 112.052 46.5794 112.921 46.5794C113.789 46.5794 114.487 47.3315 114.487 48.1993C114.487 49.0709 113.789 49.7828 112.921 49.7828Z" fill="#AAB9CA"/>
</g>
<defs>
<clipPath id="clip0_1_54">
<rect width="136" height="80" fill="white" transform="translate(0.25 0.310059)"/>
</clipPath>
</defs>
</svg>
