<svg width="35" height="33" viewBox="0 0 35 33" fill="none" xmlns="http://www.w3.org/2000/svg">
<g clip-path="url(#clip0_1_360)">
<path d="M12.5081 23.0962C13.0682 23.3197 13.6177 22.7727 13.432 22.1907C12.1577 18.1957 7.5441 16.7054 3.25517 20.2498C0.999156 22.1144 0.151388 22.5106 0.130005 22.5206C1.61728 24.0334 3.3164 29.1102 7.02451 29.6716C11.1093 30.4251 14.7245 26.3364 11.7667 24.4654C9.8215 23.2351 7.5312 22.5204 5.07622 22.5204C7.64994 21.9302 10.2193 22.1833 12.5081 23.0962Z" fill="#014751"/>
<path d="M31.005 20.2496C23.6016 14.1314 18.8801 23.78 21.8149 22.8235C23.8994 22.1443 26.1781 21.9963 28.4639 22.5205C24.5911 22.5205 21.0211 24.3262 18.6409 27.2653C18.8364 22.6464 19.132 19.7552 19.4748 17.6045C21.4531 17.5354 24.0898 15.91 25.5378 13.066C28.0341 8.52093 26.8764 3.86067 26.5039 0.920044C24.5534 2.85249 16.0328 0.588172 12.655 6.477C11.1629 9.07833 11.5966 12.2438 13.1662 14.5603C13.6631 15.2936 14.8511 14.9417 14.885 14.0518C15.0324 10.1804 16.9262 7.25547 20.4568 5.63543C18.8725 7.72382 17.8323 10.0619 17.2949 12.4785C16.4596 16.243 15.5872 18.7124 15.2668 30.711C15.2343 31.9279 16.2032 32.9351 17.3996 32.9198C18.2657 32.9087 19.0076 32.3496 19.3407 31.5361C19.8473 30.2989 20.6718 29.0184 22.0135 27.8453C23.2885 29.2791 25.2287 30.042 27.2362 29.6716C30.9285 29.1126 32.6517 24.0248 34.1306 22.5203C34.109 22.5106 33.2611 22.1144 31.005 20.2496Z" fill="#014751"/>
</g>
<defs>
<clipPath id="clip0_1_360">
<rect width="34" height="32" fill="white" transform="translate(0.130005 0.920044)"/>
</clipPath>
</defs>
</svg>
