<svg width="95" height="61" viewBox="0 0 95 61" fill="none" xmlns="http://www.w3.org/2000/svg">
<g clip-path="url(#clip0_1_62)">
<mask id="mask0_1_62" style="mask-type:luminance" maskUnits="userSpaceOnUse" x="0" y="0" width="94" height="61">
<path d="M93.9688 0.310059H0.96875V60.3101H93.9688V0.310059Z" fill="white"/>
</mask>
<g mask="url(#mask0_1_62)">
<path fill-rule="evenodd" clip-rule="evenodd" d="M5.01245 0.356934H89.925C92.1587 0.356934 93.9688 2.14487 93.9688 4.35006V56.2685C93.9688 58.4745 92.1585 60.2624 89.925 60.2624H5.01245C2.77896 60.2624 0.96875 58.4745 0.96875 56.2685V4.35006C0.96875 2.14487 2.77896 0.356934 5.01245 0.356934Z" fill="#F8FBFF"/>
<path fill-rule="evenodd" clip-rule="evenodd" d="M2.23242 30.1968V56.1487C2.23242 57.6696 3.49633 58.9988 5.03701 58.9988L89.9961 59.0014C91.5424 59.0014 92.812 57.6088 92.812 56.0885V30.1991" fill="#AAB9CA"/>
<path fill-rule="evenodd" clip-rule="evenodd" d="M58.8206 33.2085H65.2855V50.424H73.0184V55.8709H58.8206V33.2085ZM68.6451 33.2085H76.1247L80.0536 39.9067L83.8577 33.2085H91.3364L83.0965 45.2901V55.8709H76.9483V45.2901L68.6451 33.2085ZM7.29004 33.2085H12.9312L19.0153 41.785L24.9743 33.2085H30.6781V55.8709H24.9743V41.4086L19.5222 48.6085H18.5084L12.9312 41.4086V55.8709H7.29004" fill="#F8FBFF"/>
<path fill-rule="evenodd" clip-rule="evenodd" d="M31.9814 44.5401C31.9814 37.8671 37.6854 32.4585 44.7206 32.4585C51.7574 32.4585 57.4612 37.8671 57.4612 44.5401C57.4612 51.2131 51.7573 56.6233 44.7206 56.6233C37.6852 56.6233 31.9814 51.2131 31.9814 44.5401Z" fill="#F8FBFF"/>
<path fill-rule="evenodd" clip-rule="evenodd" d="M38.7002 44.5396C38.7002 40.91 41.3957 37.9663 44.7208 37.9663C48.0475 37.9663 50.7431 40.91 50.7431 44.5396C50.7431 48.1708 48.0475 51.1128 44.7208 51.1128C41.3957 51.1128 38.7002 48.1708 38.7002 44.5396Z" fill="#AAB9CA"/>
<path fill-rule="evenodd" clip-rule="evenodd" d="M5.14756 1.43195C3.53708 1.43195 2.23145 2.72152 2.23145 4.31218V30.1961L92.811 30.1986V4.3138C92.811 2.72476 91.4837 1.42725 89.8685 1.42725" fill="#AAB9CA"/>
<path fill-rule="evenodd" clip-rule="evenodd" d="M22.3965 4.53662H28.8616V27.1982H22.3965V4.53662ZM81.2799 4.53662H87.8083V27.1982H81.2799V4.53662ZM7.29004 4.53662H13.1421V21.8148H20.8119V27.1982H7.29004" fill="#F8FBFF"/>
<path fill-rule="evenodd" clip-rule="evenodd" d="M57.8919 4.5361H64.2936V18.809C64.2936 20.9525 66.1662 22.6905 68.4778 22.6905C70.7876 22.6905 72.6611 20.9525 72.6611 18.809V4.5361H78.9985L79.0194 20.8748C79.0194 20.8748 78.9985 27.8868 68.4778 27.8868C57.9553 27.8868 57.8921 20.8748 57.8921 20.8748L57.8919 4.5361ZM51.722 29.452L49.1387 26.6661C47.4216 27.4844 45.4814 27.9446 43.4291 27.9446C36.3923 27.9446 30.6885 22.535 30.6885 15.862C30.6885 9.18901 36.3924 3.77881 43.4291 3.77881C50.4651 3.77881 56.1689 9.18917 56.1689 15.862C56.1689 18.8841 54.9988 21.647 53.0652 23.766L56.3494 27.1975" fill="#F8FBFF"/>
<path fill-rule="evenodd" clip-rule="evenodd" d="M46.6831 17.1835L48.6161 19.1243C49.1213 18.1618 49.4501 17.0521 49.4501 15.8638C49.4501 12.2326 46.7538 9.29053 43.4287 9.29053C40.1028 9.29053 37.4072 12.2326 37.4072 15.8638C37.4072 19.4942 40.1028 22.437 43.4287 22.437C44.0077 22.437 44.5531 22.3324 45.0768 22.1598L42.4678 19.312" fill="#AAB9CA"/>
</g>
</g>
<defs>
<clipPath id="clip0_1_62">
<rect width="94" height="60" fill="white" transform="translate(0.25 0.310059)"/>
</clipPath>
</defs>
</svg>
