<svg width="189" height="31" viewBox="0 0 189 31" fill="none" xmlns="http://www.w3.org/2000/svg">
<g clip-path="url(#clip0_1_78)">
<path d="M45.4826 22.4475C45.4826 22.4475 45.3792 28.3225 46.4617 28.8398H38.7066C38.7066 28.8398 38.1927 28.5008 37.9495 26.8773C37.9495 26.8773 36.0037 29.4039 31.5538 29.4039C27.1064 29.4039 24.8699 26.6012 24.8699 23.5042C24.8699 20.4076 27.0442 18.3429 31.5808 17.4194L33.1531 17.1261C33.1531 17.1261 36.2232 16.5758 37.1333 16.2528C38.0421 15.9336 38.031 14.9024 38.031 14.9024C38.031 14.9024 38.1409 13.1319 35.5106 13.1319C32.8823 13.1319 32.6571 15.1824 32.6571 15.7932L25.8963 15.6529C25.8963 15.6529 24.1089 8.26884 35.7582 8.26884C35.7582 8.26884 45.4677 7.94435 45.4826 15.8341V22.4475ZM34.3324 24.8567C34.3324 24.8567 38.9259 24.9481 38.0794 19.9278C38.0794 19.9278 36.2732 20.7779 33.8642 21.3408C33.8642 21.3408 31.9715 21.7338 31.9715 23.0126C31.9715 24.29 32.9302 24.8567 34.3324 24.8567ZM78.9488 24.8567C78.9488 24.8567 83.5398 24.9481 82.6938 19.9278C82.6938 19.9278 80.8885 20.7779 78.4817 21.3408C78.4817 21.3408 76.5875 21.7338 76.5875 23.0126C76.5875 24.29 77.5468 24.8567 78.9488 24.8567ZM90.0995 22.4475C90.0995 22.4475 89.9947 28.3225 91.0753 28.8398H83.3224C83.3224 28.8398 82.8072 28.5008 82.5621 26.8773C82.5621 26.8773 80.6204 29.4039 76.1711 29.4039C71.7218 29.4039 69.4869 26.6012 69.4869 23.5042C69.4869 20.4076 71.6605 18.3429 76.1948 17.4194L77.7675 17.1261C77.7675 17.1261 80.8405 16.5758 81.7503 16.2528C82.6563 15.9336 82.6457 14.9024 82.6457 14.9024C82.6457 14.9024 82.7571 13.1319 80.1269 13.1319C77.4974 13.1319 77.2753 15.1824 77.2753 15.7932L70.5127 15.6529C70.5127 15.6529 68.7219 8.26884 80.372 8.26884C80.372 8.26884 90.0804 7.94435 90.0995 15.8341V22.4475ZM14.3752 13.5502C14.3752 13.5502 17.2518 13.4544 17.2518 10.6023C17.2518 7.74952 14.3752 7.77265 14.3752 7.77265H9.40766V13.5507L14.3752 13.5502ZM17.6219 1.16518C17.6219 1.16518 25.3857 2.15942 25.3857 10.6506C25.3857 10.6506 25.3432 16.8653 20.4373 19.21C19.6553 19.5842 18.7463 19.9672 17.6963 20.1038C17.6963 20.1038 16.1703 20.3355 14.9419 20.3355L14.8181 20.321H9.40766V28.8333H0.908813V0.968048H13.2461C13.2461 0.968048 16.1466 0.870733 17.6219 1.16518ZM126.541 19.2035V18.8937C126.496 14.4682 124.467 13.6879 123.567 13.571C123.065 13.5023 122.821 13.5563 122.821 13.5563C121.998 13.6382 119.843 14.2755 119.746 18.7496V19.3747C119.853 23.8123 122 24.449 122.821 24.5304C122.821 24.5304 123.065 24.5834 123.567 24.5149C124.467 24.4006 126.492 23.6185 126.541 19.2035ZM130.595 10.6728C134.062 13.4611 134.307 17.638 134.313 18.6399L134.311 19.1407C134.296 20.249 133.991 24.3103 130.595 27.0382C130.14 27.4085 129.59 27.7259 129.057 28.0584C129.057 28.0584 128.328 28.4282 127.182 28.7826C126.192 29.0869 124.884 29.3836 123.458 29.4194L122.943 29.4281C121.504 29.3972 120.18 29.0956 119.18 28.787C118.029 28.4326 117.305 28.0646 117.305 28.0646C116.767 27.7349 116.218 27.4124 115.764 27.048C112.388 24.3317 112.068 20.2969 112.046 19.1639V18.6312C112.054 17.6329 112.295 13.4567 115.764 10.6684C116.218 10.3005 116.767 9.98039 117.305 9.65121C117.305 9.65121 118.029 9.27928 119.18 8.92488C120.18 8.61837 121.504 8.3201 122.943 8.28769L123.458 8.29434C124.884 8.32985 126.192 8.62509 127.182 8.93133C128.328 9.2891 129.057 9.6584 129.057 9.6584C129.59 9.98711 130.14 10.3101 130.595 10.6728ZM57.8269 14.3987C57.8269 14.3987 55.0221 14.5936 55.0221 17.6434V28.8354H47.3625V8.73934H54.4597L54.6576 10.9208C54.6576 10.9208 57.3095 8.09516 61.466 8.09516C65.6179 8.09516 68.5921 11.4855 68.6271 16.1422V28.8398H60.5967V16.7606C60.5967 16.7606 60.679 14.3987 57.8269 14.3987ZM91.3316 22.151H98.4295C98.4295 22.151 98.1106 24.9419 101.721 24.9419C101.721 24.9419 104 24.9097 104 23.2345C104 23.2345 104.153 22.1298 102.657 21.6612C102.657 21.6612 100.125 21.1218 98.4269 20.8989C98.4269 20.8989 91.4752 20.2354 91.4752 14.9024C91.4752 7.99706 101.205 8.29098 101.205 8.29098C101.205 8.29098 110.882 7.6383 110.882 14.5698H103.863C103.863 14.5698 104.034 12.5938 101.205 12.5938C101.205 12.5938 99.0173 12.7155 99.0173 14.0047C99.0173 14.0047 98.9797 14.9024 100.554 15.1726C102.126 15.4416 103.969 15.7882 106.084 16.3249C108.164 16.8615 111.667 18.3658 111.667 22.2555C111.667 22.2555 112.241 29.4384 101.672 29.4384C101.672 29.4384 91.3316 30.1148 91.3316 22.151ZM145.811 14.3987C145.811 14.3987 143.006 14.5936 143.006 17.6434V28.8354H135.348V8.73934H142.446L142.644 10.9208C142.644 10.9208 145.295 8.09516 149.447 8.09516C153.602 8.09516 156.576 11.4855 156.613 16.1422V28.8398H148.577V16.7606C148.577 16.7606 148.663 14.3987 145.811 14.3987ZM158.014 8.73341H165.533V28.8398H158.014V8.73341ZM158.014 0.966467H165.533V5.9572H158.014V0.966467ZM186.907 16.3027H180.394C180.394 16.3027 180.171 13.8451 177.564 13.8451C177.564 13.8451 173.978 13.5507 173.978 18.9092C173.978 24.2663 177.709 23.9729 177.709 23.9729C177.709 23.9729 180.66 24.1682 180.66 20.4806H187.591L187.589 20.8C187.529 22.3942 186.733 29.4039 177.238 29.4039C177.238 29.4039 170.82 30.0301 167.476 23.2945C167.476 23.2945 166.615 21.1218 166.615 18.5141C166.615 15.912 167.585 9.16609 177.024 8.32834L177.59 8.32063C187.154 8.51644 187.346 16.3027 187.346 16.3027H186.907Z" fill="#AAB9CA"/>
</g>
<defs>
<clipPath id="clip0_1_78">
<rect width="188" height="30" fill="white" transform="translate(0.25 0.310059)"/>
</clipPath>
</defs>
</svg>
