<svg width="74" height="74" viewBox="0 0 74 74" fill="none" xmlns="http://www.w3.org/2000/svg">
<g clip-path="url(#clip0_1_309)">
<path d="M73.5 25.8601H26.05V73.3101H73.5V25.8601Z" fill="#014751"/>
<path d="M28.3313 55.9726C43.702 55.9726 56.1625 43.5121 56.1625 28.1413C56.1625 12.7705 43.702 0.310059 28.3313 0.310059C12.9605 0.310059 0.5 12.7705 0.5 28.1413C0.5 43.5121 12.9605 55.9726 28.3313 55.9726Z" fill="#00D37F"/>
<path d="M26.05 55.8722C26.8044 55.9331 27.5709 55.9726 28.3313 55.9726C35.7123 55.9718 42.7908 53.0393 48.01 47.8202C53.2292 42.6009 56.1617 35.5224 56.1625 28.1414C56.1625 27.3718 56.123 26.6205 56.0621 25.8601H26.05V55.8722Z" fill="#FFEEB4"/>
</g>
<defs>
<clipPath id="clip0_1_309">
<rect width="73" height="73" fill="white" transform="translate(0.5 0.310059)"/>
</clipPath>
</defs>
</svg>
