<svg width="145" height="49" viewBox="0 0 145 49" fill="none" xmlns="http://www.w3.org/2000/svg">
<g clip-path="url(#clip0_1_109)">
<mask id="mask0_1_109" style="mask-type:luminance" maskUnits="userSpaceOnUse" x="0" y="0" width="145" height="49">
<path d="M144.25 0.310059H0.25V48.3101H144.25V0.310059Z" fill="white"/>
</mask>
<g mask="url(#mask0_1_109)">
<path d="M71.1978 43.9392C73.8417 46.5067 77.447 48.0941 81.4233 48.0941L144.25 48.1013L130.681 7.6219C128.828 3.32158 124.48 0.310059 119.258 0.310059C114.058 0.310059 109.645 3.41998 107.861 7.70254L103.338 20.8887L103.32 0.991179L81.3796 0.980139C77.4138 0.980139 73.8489 2.52766 71.2233 5.0875L71.231 0.997899H48.7665C44.5823 0.997899 40.7769 2.78206 38.1153 5.58622V0.980139L16.9425 0.998379C7.80232 0.990699 0.30472 8.1355 0.29368 17.5819C0.29368 21.9552 2.20504 25.9215 5.0236 28.86L0.25 28.8523V48.0941L21.5822 48.0903C27.5759 48.0831 33.5154 44.4667 35.5799 40.1338L35.6418 39.9557C38.027 44.773 43.0046 48.0941 48.7655 48.0941L71.1974 48.0903L71.1978 43.9392Z" fill="white"/>
<path d="M3.54565 44.8019L21.5346 44.7837C28.8945 44.7837 34.8589 38.8374 34.8589 31.5107C34.8589 24.1696 28.8945 18.2229 21.5346 18.2229L16.8628 18.2483C16.4946 18.2483 16.1961 17.9464 16.1961 17.5749C16.1961 17.2034 16.4946 16.901 16.8628 16.901L34.8191 16.9048L34.8263 11.2715H16.8589C13.3852 11.2715 10.5589 14.0934 10.5589 17.5605C10.5589 21.0309 13.3847 23.8418 16.8589 23.8418L21.5529 23.9037C25.7697 23.9037 29.182 27.3045 29.182 31.5002C29.182 35.6987 25.7701 39.1072 21.5529 39.1072H3.55285L3.54565 44.8019Z" fill="#AAB9CA"/>
<path d="M3.55288 37.7847H21.5529C25.0377 37.7847 27.8562 34.9738 27.8562 31.4995C27.8562 28.0291 25.0377 25.2216 21.5529 25.2216L16.859 25.1708C12.6494 25.1708 9.23368 21.7661 9.23368 17.5599C9.23368 13.3652 12.6494 9.95999 16.859 9.95999L34.8263 9.95615L34.8191 4.30127H16.8628C9.51064 4.30127 3.53848 10.2408 3.53848 17.5748C3.53848 24.9087 9.51064 30.8516 16.8628 30.8516L21.5092 30.8587C21.8625 30.8587 22.161 31.1468 22.161 31.5106C22.161 31.8677 21.8625 32.1552 21.5092 32.1552L3.54568 32.1696L3.55288 37.7847Z" fill="#AAB9CA"/>
<path d="M48.8058 39.1431C45.6849 39.1431 43.1284 36.6557 43.1284 33.48V15.5098C43.1284 12.4546 45.6849 9.94175 48.8058 9.94175L68.0073 9.94511V4.30127H48.8058C42.5572 4.30127 37.4956 9.34463 37.4956 15.5717V33.4805C37.4956 39.708 42.5572 44.7586 48.8058 44.7586L67.9271 44.7663L67.9233 39.1363L48.8058 39.1431Z" fill="#AAB9CA"/>
<path d="M44.505 15.5717C44.505 13.1904 46.4207 11.2603 48.8058 11.2603H68.0072V16.9118H51.4641C50.1388 16.9118 50.1205 18.2265 50.1205 18.2265H63.922V23.8526H44.4983L44.505 15.5717Z" fill="#AAB9CA"/>
<path d="M48.8059 37.7742C46.4279 37.7742 44.4979 35.8551 44.4979 33.4806V25.1924H63.9215V30.83H50.1201C50.1383 32.1553 51.4636 32.162 51.4636 32.162H67.9267L67.9228 37.7665L48.8059 37.7742Z" fill="#AAB9CA"/>
<path d="M81.4631 39.1287C78.3532 39.1287 75.8116 36.5943 75.8116 33.48V15.5712C75.8116 12.4541 78.335 9.94127 81.4482 9.94127H100.046V4.30127H81.405C75.1593 4.30127 70.0977 9.34463 70.0977 15.5717V33.4805C70.0977 39.708 75.203 44.7586 81.4482 44.7586L100.046 44.7663V18.2266H84.0633V23.8527H94.3977V39.1287H81.4631Z" fill="#AAB9CA"/>
<path d="M77.1369 33.4798C77.1369 35.8659 79.067 37.8065 81.4482 37.8065H93.0647V25.1849H84.0772V30.8297H87.4127L87.4233 32.155H84.1026C83.3778 32.155 82.7846 31.5545 82.7846 30.8297L82.7548 18.2225C82.7548 18.2225 82.751 16.9116 84.0878 16.879H100.052L100.045 11.2563L81.4473 11.2601C79.066 11.2601 77.1359 13.1902 77.1359 15.5715L77.1369 33.4798Z" fill="#AAB9CA"/>
<path d="M117.521 11.1765C117.772 10.4594 118.453 9.94238 119.258 9.94238C120.063 9.94238 120.751 10.4594 120.995 11.1765L130.023 37.8467H116.804L116.818 31.5727H121.235L119.247 25.6624L112.769 44.7616H106.105L117.521 11.1765Z" fill="#AAB9CA"/>
<path d="M131.843 39.1285H116.826V44.7613H139.679L127.794 9.59553C126.752 6.16545 123.319 3.64209 119.254 3.64209C115.183 3.64209 111.76 6.15441 110.711 9.58161L98.7162 44.7618H104.699L116.345 10.5647C116.818 9.43233 117.933 8.63457 119.244 8.63457C120.548 8.63457 121.669 9.43233 122.146 10.5575L131.843 39.1285Z" fill="#AAB9CA"/>
<path d="M135.372 8.77675C136.436 8.77675 137.437 8.36155 138.187 7.61515C138.937 6.86155 139.356 5.86747 139.356 4.80427C139.356 3.74827 138.937 2.75755 138.187 2.00395C137.437 1.26139 136.436 0.846191 135.372 0.846191C133.184 0.846191 131.396 2.61979 131.396 4.80475C131.396 5.86795 131.811 6.86203 132.568 7.61563C133.315 8.36155 134.312 8.77675 135.372 8.77675ZM131.957 4.80379C131.957 3.89707 132.306 3.03787 132.958 2.39323C133.606 1.74859 134.465 1.39915 135.372 1.39915C136.29 1.39915 137.149 1.74907 137.797 2.39323C138.442 3.03787 138.799 3.89707 138.799 4.80379C138.799 6.68635 137.262 8.21563 135.372 8.21563C134.465 8.21563 133.606 7.86235 132.958 7.21771C132.306 6.57355 131.957 5.71771 131.957 4.80379Z" fill="#AAB9CA"/>
<path d="M134.352 5.13902V7.01054H133.777V2.61182H135.412C136.028 2.61902 136.388 2.61902 136.73 2.87726C137.061 3.12158 137.2 3.48926 137.2 3.89726C137.2 4.92446 136.363 5.05886 136.151 5.10254L137.389 7.01054H136.694L135.489 5.13902H134.352ZM134.352 4.6547H135.521C135.707 4.6547 135.882 4.6547 136.057 4.61102C136.465 4.51262 136.61 4.22126 136.61 3.9011C136.61 3.78446 136.599 3.48974 136.348 3.28574C136.118 3.09278 135.827 3.09998 135.489 3.09998H134.352V4.6547Z" fill="#AAB9CA"/>
</g>
</g>
<defs>
<clipPath id="clip0_1_109">
<rect width="144" height="48" fill="white" transform="translate(0.25 0.310059)"/>
</clipPath>
</defs>
</svg>
