<svg width="74" height="74" viewBox="0 0 74 74" fill="none" xmlns="http://www.w3.org/2000/svg">
<g clip-path="url(#clip0_1_318)">
<path d="M73.5 0.310059H0.5V73.3101H73.5V0.310059Z" fill="#00D37F"/>
<path d="M37.0002 60.5384C50.1032 60.5384 60.7252 49.9164 60.7252 36.8134C60.7252 23.7104 50.1032 13.0884 37.0002 13.0884C23.8972 13.0884 13.2752 23.7104 13.2752 36.8134C13.2752 49.9164 23.8972 60.5384 37.0002 60.5384Z" fill="#FFEEB4"/>
<path d="M36.9997 16.1301C41.0904 16.1301 45.0894 17.3431 48.4907 19.6159C51.8921 21.8886 54.5432 25.1189 56.1087 28.8983C57.6741 32.6777 58.0837 36.8364 57.2856 40.8485C56.4875 44.8607 54.5177 48.5461 51.6251 51.4388C48.7324 54.3314 45.047 56.3012 41.0348 57.0994C37.0227 57.8974 32.8639 57.4878 29.0846 55.9224C25.3052 54.3569 22.0749 51.7058 19.8022 48.3044C17.5294 44.9031 16.3164 40.9041 16.3164 36.8134C16.3164 31.3278 18.4955 26.067 22.3744 22.1881C26.2532 18.3093 31.5141 16.1301 36.9997 16.1301ZM36.9997 10.0468C31.7057 10.0468 26.5308 11.6165 22.129 14.5577C17.7272 17.4989 14.2965 21.6793 12.2706 26.5702C10.2446 31.4612 9.71456 36.8431 10.7474 42.0353C11.7802 47.2275 14.3294 51.997 18.0728 55.7403C21.8162 59.4837 26.5856 62.033 31.7778 63.0658C36.97 64.0986 42.3519 63.5685 47.2429 61.5426C52.1339 59.5167 56.3142 56.0859 59.2554 51.6842C62.1965 47.2824 63.7664 42.1074 63.7664 36.8134C63.7583 29.717 60.9356 22.9134 55.9177 17.8954C50.8997 12.8774 44.0962 10.0548 36.9997 10.0468Z" fill="#014751"/>
</g>
<defs>
<clipPath id="clip0_1_318">
<rect width="73" height="73" fill="white" transform="translate(0.5 0.310059)"/>
</clipPath>
</defs>
</svg>
