<svg width="179" height="38" viewBox="0 0 179 38" fill="none" xmlns="http://www.w3.org/2000/svg">
<g clip-path="url(#clip0_1_531)">
<path d="M54.0739 29.5019C53.4443 29.6986 52.8148 29.7773 52.1065 29.7773C48.3685 29.7773 46.4404 27.7312 46.4404 24.3866V18.8779H43.8828V15.2578H46.5191V10.7722H50.6506V15.2578H54.192V18.8779H50.6506V23.8751C50.6506 25.5277 51.5163 26.1573 53.1296 26.1573C53.4837 26.1573 53.7985 26.118 54.1133 26.0392V29.5019H54.0739Z" fill="#014751"/>
<path d="M60.4852 23.559C60.7213 25.2904 62.2165 26.3527 64.0265 26.3527C65.2857 26.3527 66.5842 25.6839 67.2137 24.6214L70.2436 26.5888C69.0238 28.7529 67.017 29.8154 64.0659 29.8154C61.823 29.8154 60.0131 29.1071 58.4785 27.7299C56.9833 26.3133 56.2357 24.5034 56.2357 22.2999C56.2357 20.2538 56.9833 18.4831 58.4785 17.0272C59.9738 15.5714 61.7838 14.8237 63.8298 14.8237C65.9547 14.8237 67.6466 15.4927 68.9844 16.7911C70.2829 18.0897 70.9518 19.8603 70.9518 21.9457C70.9518 22.6147 70.9125 23.1261 70.9125 23.441H60.4852V23.559ZM66.7416 20.8046C66.6235 19.5456 65.6005 18.3258 63.6724 18.3258C62.8067 18.3258 62.0985 18.6011 61.5477 19.152C60.9968 19.7029 60.682 20.2538 60.564 20.8046H66.7416Z" fill="#014751"/>
<path d="M78.9819 29.895C75.9915 29.895 73.906 28.7932 72.7255 26.5897L75.7947 24.7796C76.3849 25.9208 77.4473 26.511 79.0213 26.511C80.0836 26.511 80.7526 26.0388 80.7526 25.4486C80.7526 24.8584 80.2804 24.4649 78.4703 24.0714C75.0864 23.3238 73.3945 21.7499 73.3945 19.4283C73.3945 18.1299 73.9453 17.0281 75.0078 16.2018C76.1095 15.3361 77.408 14.9033 78.9032 14.9033C81.5395 14.9033 83.4676 16.0444 84.4119 17.8151L81.3822 19.625C80.8312 18.7201 80.005 18.2479 78.7852 18.2479C77.9195 18.2479 77.2899 18.7201 77.2899 19.3103C77.2899 19.9399 77.9195 20.3727 79.1787 20.6087C82.7987 21.3564 84.6874 22.773 84.6874 25.2518C84.6874 28.0062 82.4839 29.895 78.9819 29.895Z" fill="#014751"/>
<path d="M96.1727 29.5019C95.5432 29.6986 94.9136 29.7773 94.2053 29.7773C90.4672 29.7773 88.5392 27.7312 88.5392 24.3866V18.8779H85.9816V15.2578H88.6179V10.7722H92.7495V15.2578H96.2908V18.8779H92.7495V23.8751C92.7495 25.5277 93.6151 26.1573 95.2284 26.1573C95.5825 26.1573 95.8973 26.118 96.2121 26.0392V29.5019H96.1727Z" fill="#014751"/>
<path d="M102.822 17.0274H102.861C103.845 15.6502 105.341 14.9812 107.229 14.9812C109.236 14.9812 110.889 15.7288 112.148 17.2241C113.406 18.7193 114.036 20.4506 114.036 22.3787C114.036 24.3461 113.406 26.038 112.069 27.5726C110.77 29.0678 109.117 29.8154 107.111 29.8154C105.301 29.8154 103.885 29.1858 102.861 27.9661H102.822V36.6226H98.651V15.2567H102.822V17.0274ZM103.766 25.0543C104.436 25.7233 105.301 26.0774 106.284 26.0774C107.269 26.0774 108.134 25.7233 108.803 25.0543C109.471 24.3461 109.825 23.4804 109.825 22.4181C109.825 21.3556 109.471 20.4899 108.763 19.8211C108.094 19.1521 107.229 18.798 106.245 18.798C105.262 18.798 104.436 19.1521 103.766 19.8211C103.097 20.4899 102.743 21.3556 102.743 22.4181C102.743 23.441 103.097 24.3461 103.766 25.0543Z" fill="#014751"/>
<path d="M118.446 17.1065C119.982 15.6506 121.83 14.9424 124.034 14.9424C126.238 14.9424 128.048 15.6506 129.543 17.0671C131.038 18.4837 131.786 20.215 131.786 22.3398C131.786 24.4646 131.038 26.2746 129.504 27.7304C127.969 29.147 126.119 29.8553 123.956 29.8553C121.752 29.8553 119.902 29.147 118.408 27.7304C116.912 26.314 116.164 24.5432 116.164 22.4185C116.164 20.3331 116.912 18.523 118.446 17.1065ZM121.476 25.0548C122.146 25.7238 123.011 26.0779 123.994 26.0779C126.001 26.0779 127.497 24.5432 127.497 22.4185C127.497 21.3561 127.143 20.4904 126.473 19.8215C125.805 19.1133 124.939 18.7591 123.956 18.7591C122.972 18.7591 122.146 19.1133 121.476 19.8215C120.807 20.4904 120.453 21.3561 120.453 22.4185C120.453 23.4415 120.807 24.3465 121.476 25.0548Z" fill="#014751"/>
<path d="M143.117 18.877C142.881 18.877 142.448 18.877 142.094 18.877C139.379 18.877 138.199 20.687 138.199 23.2446V29.5403H134.027V15.2569H138.199V17.4604H138.238C138.867 16.162 140.363 15.0996 142.291 15.0996C142.645 15.0996 142.921 15.1389 143.117 15.2176V18.877Z" fill="#014751"/>
<path d="M154.251 29.5019C153.622 29.6986 152.992 29.7773 152.283 29.7773C148.545 29.7773 146.618 27.7312 146.618 24.3866V18.8779H144.02V15.2578H146.657V10.7722H150.789V15.2578H154.33V18.8779H150.789V23.8751C150.789 25.5277 151.654 26.1573 153.268 26.1573C153.622 26.1573 153.936 26.118 154.251 26.0392V29.5019Z" fill="#014751"/>
<path d="M167.63 27.8893C166.647 29.1878 165.23 29.8174 163.223 29.8174C161.216 29.8174 159.564 29.109 158.305 27.6139C157.046 26.1186 156.416 24.3873 156.416 22.3805C156.416 20.4919 157.046 18.7606 158.344 17.2653C159.643 15.7308 161.295 14.9832 163.263 14.9832C165.073 14.9832 166.489 15.6127 167.591 16.9112H167.63V15.2586H171.801V29.5813H167.63V27.8893ZM164.168 18.7606C162.161 18.7606 160.627 20.2558 160.627 22.3805C160.627 23.443 160.981 24.3479 161.65 25.0169C162.318 25.6858 163.184 26.0399 164.168 26.0399C165.151 26.0399 166.018 25.6858 166.686 25.0169C167.355 24.3087 167.709 23.443 167.709 22.3805C167.709 20.2558 166.175 18.7606 164.168 18.7606Z" fill="#014751"/>
<path d="M178.882 29.5804H174.671V7.74219H178.882V29.5804Z" fill="#014751"/>
<path fill-rule="evenodd" clip-rule="evenodd" d="M17.4573 1.09459C21.0673 0.917781 24.5102 1.8099 27.4234 3.51297C28.4551 4.11619 28.8026 5.44166 28.1994 6.4735C27.5962 7.50533 26.2707 7.85278 25.2389 7.24956C23.0388 5.96335 20.4248 5.28161 17.6632 5.41797L17.6483 5.41866C10.4443 5.72449 4.57477 11.6523 4.33451 18.9058C4.09794 26.9836 10.6705 33.556 18.7483 33.3195C26.0335 33.0794 31.995 27.1437 32.2344 19.8723C32.2684 18.7017 32.1643 17.5426 31.9292 16.4677L31.9252 16.4493C31.7811 15.7616 30.8274 15.3959 30.2223 16.0009L21.8805 24.3427C19.6582 26.5651 16.0451 26.5651 13.8228 24.3427L13.8161 24.336L9.33039 19.811C8.48895 18.9622 8.49492 17.5919 9.34376 16.7504C10.1926 15.909 11.5628 15.915 12.4043 16.7638L16.8833 21.2822L16.8858 21.2847C17.4181 21.8142 18.2887 21.8133 18.82 21.2822L27.1618 12.9404C30.0961 10.006 35.2759 11.3679 36.1597 15.5531C36.4735 16.9921 36.6048 18.5035 36.5606 20.0036L36.5605 20.0108C36.2475 29.5779 28.4396 37.333 18.8864 37.6455L18.8795 37.6457C8.30915 37.9579 -0.303977 29.3448 0.00822829 18.7744L0.00845268 18.7672C0.320812 9.26258 7.98238 1.50074 17.4573 1.09459Z" fill="#64DB9B"/>
</g>
<defs>
<clipPath id="clip0_1_531">
<rect width="179" height="37" fill="white" transform="translate(0 0.969727)"/>
</clipPath>
</defs>
</svg>
