<svg width="179" height="37" viewBox="0 0 179 37" fill="none" xmlns="http://www.w3.org/2000/svg">
<g clip-path="url(#clip0_1_660)">
<path d="M54.0749 28.5324C53.4453 28.7291 52.8157 28.8079 52.1075 28.8079C48.3694 28.8079 46.4413 26.7617 46.4413 23.4172V17.9084H43.8837V14.2884H46.5201V9.80273H50.6516V14.2884H54.1929V17.9084H50.6516V22.9056C50.6516 24.5582 51.5173 25.1878 53.1305 25.1878C53.4847 25.1878 53.7994 25.1485 54.1142 25.0697V28.5324H54.0749Z" fill="#AFF8C8"/>
<path d="M60.4862 22.5893C60.7223 24.3206 62.2175 25.383 64.0275 25.383C65.2867 25.383 66.5851 24.7141 67.2147 23.6517L70.2445 25.6191C69.0247 27.7832 67.018 28.8457 64.0669 28.8457C61.824 28.8457 60.014 28.1374 58.4795 26.7602C56.9843 25.3436 56.2366 23.5336 56.2366 21.3301C56.2366 19.2841 56.9843 17.5134 58.4795 16.0575C59.9746 14.6016 61.7846 13.854 63.8308 13.854C65.9555 13.854 67.6476 14.523 68.9854 15.8214C70.2839 17.12 70.9528 18.8906 70.9528 20.976C70.9528 21.645 70.9134 22.1564 70.9134 22.4713H60.4862V22.5893ZM66.7425 19.8349C66.6245 18.5758 65.6014 17.356 63.6734 17.356C62.8077 17.356 62.0995 17.6314 61.5486 18.1823C60.9977 18.7331 60.6829 19.2841 60.5649 19.8349H66.7425Z" fill="#AFF8C8"/>
<path d="M78.9829 28.9252C75.9924 28.9252 73.9069 27.8235 72.7265 25.62L75.7957 23.8099C76.3859 24.951 77.4483 25.5412 79.0222 25.5412C80.0846 25.5412 80.7536 25.0691 80.7536 24.4789C80.7536 23.8887 80.2813 23.4952 78.4713 23.1017C75.0874 22.3541 73.3955 20.7801 73.3955 18.4586C73.3955 17.1602 73.9463 16.0584 75.0087 15.232C76.1104 14.3664 77.4089 13.9336 78.9042 13.9336C81.5405 13.9336 83.4685 15.0747 84.4129 16.8453L81.383 18.6553C80.8322 17.7504 80.0059 17.2782 78.7862 17.2782C77.9205 17.2782 77.2909 17.7504 77.2909 18.3406C77.2909 18.9702 77.9205 19.4029 79.1796 19.639C82.7996 20.3866 84.6883 21.8032 84.6883 24.2821C84.6883 27.0365 82.4848 28.9252 78.9829 28.9252Z" fill="#AFF8C8"/>
<path d="M96.1718 28.5324C95.5422 28.7291 94.9126 28.8079 94.2043 28.8079C90.4663 28.8079 88.5382 26.7617 88.5382 23.4172V17.9084H85.9806V14.2884H88.617V9.80273H92.7485V14.2884H96.2898V17.9084H92.7485V22.9056C92.7485 24.5582 93.6141 25.1878 95.2274 25.1878C95.5816 25.1878 95.8963 25.1485 96.2111 25.0697V28.5324H96.1718Z" fill="#AFF8C8"/>
<path d="M102.823 16.0574H102.862C103.846 14.6802 105.342 14.0112 107.23 14.0112C109.237 14.0112 110.89 14.7589 112.148 16.2541C113.407 17.7493 114.037 19.4807 114.037 21.4087C114.037 23.3761 113.407 25.0681 112.07 26.6026C110.771 28.0978 109.118 28.8455 107.112 28.8455C105.302 28.8455 103.886 28.2159 102.862 26.9961H102.823V35.6526H98.652V14.2867H102.823V16.0574ZM103.767 24.0844C104.437 24.7533 105.302 25.1074 106.285 25.1074C107.269 25.1074 108.135 24.7533 108.804 24.0844C109.472 23.3761 109.826 22.5104 109.826 21.4481C109.826 20.3856 109.472 19.52 108.764 18.8511C108.095 18.1821 107.23 17.828 106.246 17.828C105.263 17.828 104.437 18.1821 103.767 18.8511C103.098 19.52 102.744 20.3856 102.744 21.4481C102.744 22.4711 103.098 23.3761 103.767 24.0844Z" fill="#AFF8C8"/>
<path d="M118.449 16.1368C119.984 14.6809 121.833 13.9727 124.037 13.9727C126.241 13.9727 128.051 14.6809 129.545 16.0974C131.041 17.514 131.789 19.2453 131.789 21.37C131.789 23.4949 131.041 25.3048 129.506 26.7607C127.972 28.1773 126.122 28.8855 123.958 28.8855C121.755 28.8855 119.905 28.1773 118.41 26.7607C116.915 25.3442 116.167 23.5735 116.167 21.4488C116.167 19.3633 116.915 17.5533 118.449 16.1368ZM121.479 24.0851C122.149 24.754 123.014 25.1081 123.997 25.1081C126.004 25.1081 127.5 23.5735 127.5 21.4488C127.5 20.3863 127.146 19.5207 126.476 18.8518C125.808 18.1436 124.942 17.7893 123.958 17.7893C122.975 17.7893 122.149 18.1436 121.479 18.8518C120.81 19.5207 120.456 20.3863 120.456 21.4488C120.456 22.4718 120.81 23.3768 121.479 24.0851Z" fill="#AFF8C8"/>
<path d="M143.118 17.9073C142.882 17.9073 142.449 17.9073 142.095 17.9073C139.38 17.9073 138.2 19.7173 138.2 22.2749V28.5706H134.028V14.2872H138.2V16.4907H138.239C138.868 15.1922 140.364 14.1299 142.292 14.1299C142.646 14.1299 142.922 14.1692 143.118 14.2479V17.9073Z" fill="#AFF8C8"/>
<path d="M154.25 28.5324C153.621 28.7291 152.991 28.8079 152.282 28.8079C148.545 28.8079 146.617 26.7617 146.617 23.4172V17.9084H144.019V14.2884H146.656V9.80273H150.788V14.2884H154.329V17.9084H150.788V22.9056C150.788 24.5582 151.653 25.1878 153.267 25.1878C153.621 25.1878 153.935 25.1485 154.25 25.0697V28.5324Z" fill="#AFF8C8"/>
<path d="M167.633 26.9193C166.65 28.2178 165.233 28.8474 163.226 28.8474C161.219 28.8474 159.567 28.1391 158.308 26.6439C157.049 25.1487 156.419 23.4173 156.419 21.4106C156.419 19.5219 157.049 17.7906 158.347 16.2953C159.646 14.7608 161.298 14.0132 163.266 14.0132C165.076 14.0132 166.492 14.6428 167.594 15.9412H167.633V14.2886H171.804V28.6113H167.633V26.9193ZM164.171 17.7906C162.164 17.7906 160.63 19.2858 160.63 21.4106C160.63 22.473 160.984 23.378 161.652 24.0469C162.321 24.7158 163.187 25.0699 164.171 25.0699C165.154 25.0699 166.02 24.7158 166.689 24.0469C167.358 23.3387 167.712 22.473 167.712 21.4106C167.712 19.2858 166.178 17.7906 164.171 17.7906Z" fill="#AFF8C8"/>
<path d="M178.883 28.6106H174.672V6.77246H178.883V28.6106Z" fill="#AFF8C8"/>
<path fill-rule="evenodd" clip-rule="evenodd" d="M17.4573 0.124622C21.0673 -0.0521895 24.5102 0.839934 27.4234 2.543C28.4551 3.14622 28.8026 4.47169 28.1994 5.50353C27.5962 6.53536 26.2707 6.88281 25.2389 6.27959C23.0388 4.99338 20.4248 4.31163 17.6632 4.448L17.6483 4.44869C10.4443 4.75452 4.57477 10.6823 4.33451 17.9358C4.09794 26.0136 10.6705 32.5861 18.7483 32.3495C26.0335 32.1094 31.995 26.1737 32.2344 18.9023C32.2684 17.7318 32.1643 16.5726 31.9292 15.4977L31.9252 15.4793C31.7811 14.7917 30.8274 14.4259 30.2223 15.0309L21.8805 23.3727C19.6582 25.5951 16.0451 25.5951 13.8228 23.3727L13.8161 23.3661L9.33039 18.8411C8.48895 17.9922 8.49492 16.622 9.34376 15.7805C10.1926 14.9391 11.5628 14.945 12.4043 15.7939L16.8833 20.3122L16.8858 20.3147C17.4181 20.8443 18.2887 20.8434 18.82 20.3122L27.1618 11.9704C30.0961 9.03603 35.2759 10.3979 36.1597 14.5831C36.4735 16.0221 36.6048 17.5336 36.5607 19.0337L36.5605 19.0408C36.2475 28.6079 28.4396 36.3631 18.8864 36.6755L18.8795 36.6757C8.30915 36.988 -0.303977 28.3748 0.00822829 17.8044L0.00845268 17.7972C0.320812 8.29261 7.98238 0.530765 17.4573 0.124622Z" fill="#AFF8C8"/>
</g>
<defs>
<clipPath id="clip0_1_660">
<rect width="179" height="37" fill="white"/>
</clipPath>
</defs>
</svg>
